<svg width="480" height="451" fill="none" xmlns="http://www.w3.org/2000/svg"><g clip-path="url(#clip0)"><path opacity=".18" d="M281.277 445.364c4.872 2.01 10.258 2.304 15.516 2.554a2652.246 2652.246 0 00133.213 3.074c4.442 0 8.982-.045 13.144-1.586 4.162-1.541 7.932-4.925 8.665-9.307-27.823-2.161-55.842-1.949-83.566-2.976-14.534-.537-29.628 1.284-44.087 2.666a668.623 668.623 0 00-21.945 2.478c-4.593.604-16.854 4.782-20.94 3.097z" fill="#1D2741"/><path d="M368.174 431.698l3.422 8.409-13.825 6.542-12.766.929s-2.184-8.408 3.777-9.156a20.507 20.507 0 009.654-3.732l9.738-2.992zm10.976 3.8a10.376 10.376 0 00-6.361 8.537l-.37 3.543h15.698v-12.087l-8.967.007zM480 49.429v209.915a23.266 23.266 0 01-18.379 22.754 23.547 23.547 0 01-4.873.506H24.385a23.254 23.254 0 01-23.267-23.26V49.429A23.29 23.29 0 0124.385 26.16h432.363a23.253 23.253 0 0123.056 20.269c.134.994.2 1.996.196 2.999z" fill="#68E1FD"/><path d="M480 49.429v209.915a23.266 23.266 0 01-18.379 22.754 23.547 23.547 0 01-4.873.506H24.385a23.254 23.254 0 01-23.267-23.26V49.429A23.29 23.29 0 0124.385 26.16h432.363a23.253 23.253 0 0123.056 20.269c.134.994.2 1.996.196 2.999z" fill="#222231"/><path d="M478.685 47.215H.196A23.26 23.26 0 0123.26 26.947h432.362a23.253 23.253 0 0123.063 20.268z" fill="#191928"/><path d="M312.521 210.776H150.663a5.984 5.984 0 00-5.983 5.984v9.843a5.983 5.983 0 005.983 5.983h161.858a5.983 5.983 0 005.983-5.983v-9.843a5.983 5.983 0 00-5.983-5.984z" fill="#2D2D3E" stroke="#00A8B0" stroke-width=".88" stroke-miterlimit="10"/><path d="M158.852 226.724a4.752 4.752 0 10-.001-9.503 4.752 4.752 0 00.001 9.503zm14.783 0a4.752 4.752 0 100-9.504 4.752 4.752 0 000 9.504zm14.792 0a4.753 4.753 0 10-.001-9.505 4.753 4.753 0 00.001 9.505zm14.784 0a4.752 4.752 0 10-.001-9.503 4.752 4.752 0 00.001 9.503z" fill="#00A8B0"/><path d="M330.236 220.673v-2.508h1.979v-1.617h-1.979v-1.209h1.979v-1.616h-3.966v6.95a4.964 4.964 0 101.987 0zm-.989 8.31a3.454 3.454 0 01-2.452-5.891 3.453 3.453 0 114.888 4.879 3.457 3.457 0 01-2.436 1.019v-.007z" fill="#68E1FD"/><path d="M261.107 95.058h-49.572a8.884 8.884 0 00-8.883 8.884v49.572a8.884 8.884 0 008.883 8.884h49.572a8.885 8.885 0 008.884-8.884v-49.572a8.884 8.884 0 00-8.884-8.884z" fill="#191928"/><path d="M261.379 95.058H215.38a8.604 8.604 0 00-8.604 8.604v50.131a8.605 8.605 0 008.604 8.605h45.999a8.605 8.605 0 008.604-8.605v-50.131a8.604 8.604 0 00-8.604-8.605z" fill="#222231"/><path d="M215.38 95.558h45.999a8.105 8.105 0 018.104 8.104v50.131a8.105 8.105 0 01-8.104 8.105H215.38a8.105 8.105 0 01-8.104-8.105v-50.131a8.105 8.105 0 018.104-8.105z" stroke="#000" stroke-opacity=".2"/><path d="M272.589 128.947l-3.475 3.301-1.511 1.42a11.709 11.709 0 00-9.82-4.162 4.302 4.302 0 01-2.365-.386c-2.5-1.42 1.42-6.262 1.42-6.262.863-.019 1.726.019 2.584.113a1.23 1.23 0 01.227 0l.687.083c3.279.469 8.62 2.032 12.253 5.893z" fill="#fff"/><path opacity=".39" d="M268.978 131.938l.136.31-1.511 1.42a11.709 11.709 0 00-9.82-4.162 4.302 4.302 0 01-2.365-.386l1.42-6.262s1.398 0 2.584.113a1.23 1.23 0 01.227 0c.23.014.46.042.687.083 0 0 .823 3.521.212 5.001 0 .023 5.794.99 8.43 3.883z" fill="url(#paint0_linear)"/><path d="M237.492 109.252h-2.342a3.408 3.408 0 00-3.407 3.407v32.137a3.407 3.407 0 003.407 3.407h2.342a3.407 3.407 0 003.407-3.407v-32.137a3.407 3.407 0 00-3.407-3.407z" fill="url(#paint1_linear)"/><path d="M257.768 128.199a15.48 15.48 0 01-15.464 15.335h-3.331a2.678 2.678 0 01-2.41-1.511 2.683 2.683 0 01.124-2.609 2.682 2.682 0 012.286-1.266h1.238a10.087 10.087 0 0010.085-10.304 10.218 10.218 0 00-10.288-9.874h-1.511a2.206 2.206 0 01-2.206-2.206v-.937a2.201 2.201 0 012.206-2.205h3.543c8.559-.008 15.788 7.003 15.728 15.577z" fill="#fff"/><path opacity=".39" d="M253.643 128.818a13.452 13.452 0 01-13.439 13.341h-2.901a2.386 2.386 0 01-.755-.12 2.679 2.679 0 011.102-3.54c.4-.222.85-.337 1.307-.336h1.239a10.082 10.082 0 0010.085-10.304 10.218 10.218 0 00-10.289-9.874h-1.51a2.202 2.202 0 01-2.206-2.206v-.415c.195-.064.399-.097.604-.098h3.075a13.656 13.656 0 0113.688 13.552z" fill="url(#paint2_linear)"/><path d="M249.813 125.003s1.012 2.712-.249 6.852c0 0-4.782 4.918-.703 12.737l3.369 3.603-3.92 3.861a17.382 17.382 0 01-6.55-16.273c.869-6.663 8.053-10.78 8.053-10.78z" fill="#fff"/><path d="M244.963 155.168l31.048-29.462 26.048 22.489-32.076 30.77-25.02-23.797z" fill="#00A8B0"/><path d="M244.963 155.168l2.062 11.679 22.958 22.029v-9.911l-25.02-23.797zm57.095-6.973v10.72l-32.075 29.961v-9.911l32.075-30.77z" fill="#68E1FD"/><path d="M244.963 155.168l2.062 11.679 22.958 22.029v-9.911l-25.02-23.797z" fill="url(#paint3_linear)"/><path d="M302.058 148.195v10.72l-32.075 29.961v-9.911l32.075-30.77z" fill="url(#paint4_linear)"/><path d="M250.689 160.615l31.343-29.712 2.893 2.501-31.282 30.021-2.954-2.81z" fill="url(#paint5_linear)"/><path d="M259.943 169.219l32.091-29.711 2.893 2.493-32.03 30.021-2.954-2.803z" fill="url(#paint6_linear)"/><path opacity=".21" d="M349.462 198.47a57.64 57.64 0 00.755 13.961c.514 2.848 1.201 5.983-.264 8.491-.756 1.36-2.116 2.312-3.332 3.316-7.72 6.346-12.185 15.767-18.78 23.276a3.322 3.322 0 01-1.798 1.276 3.258 3.258 0 01-2.1-.596 27.908 27.908 0 01-9.82-9.549c-1.186-1.934-2.267-4.14-4.306-5.13-3.777-1.858-8.355 2.093-8.771 6.301-.415 4.208 1.843 8.166 4.027 11.785l10.1 16.755c3.074 5.107 6.315 10.388 11.331 13.598a27.367 27.367 0 0011.415 3.853c5.726.756 11.535.378 17.299-.068a716.73 716.73 0 0031.539-3.143c3.596-.438 7.683-1.223 9.504-4.343 1.223-2.1 1.057-4.692.846-7.109a7642.064 7642.064 0 00-2.267-26.267c-.415-4.963-1.035-10.357-4.532-13.892-2.093-2.101-5.024-3.294-6.882-5.613a14.08 14.08 0 01-2.493-6.278c-1.791-9.443-.076-19.589-3.777-28.48-.756-1.798-1.768-3.581-3.438-4.586a9.21 9.21 0 00-4.978-1.005c-8.272.234-18.674 4.178-19.278 13.447z" fill="url(#paint7_linear)"/><path opacity=".18" d="M461.847 331.806c-4.48 51.62-146.493 35.083-248.619 14.157C111.101 325.037 26.84 366.889 7.411 331.806c-8.604-15.532-2.856-34.932 6.232-51.733a23.104 23.104 0 0011.332 2.924h428.509c5.9 13.892 9.957 30.512 8.363 48.809z" fill="#68E1FD"/><path d="M350.285 310.359l-9.299 67.733a18.044 18.044 0 00.869 8.469l16.619 48.937 9.715-3.022-7.328-48.688a6.97 6.97 0 01.197-3.022l12.608-43.543 5.484 98.207h8.967l7.713-96.916c2.614-16.196-2.176-28.155-2.176-28.155h-43.369z" fill="#3F3D56"/><path d="M397.945 292.425l-9.201-59.272-1.284-7.222s17.178 9.82 22.104 26.999c6.444 22.55-11.619 39.495-11.619 39.495z" fill="#68E1FD"/><path d="M397.945 292.425l-9.201-59.272-1.284-7.222s17.178 9.82 22.104 26.999c6.444 22.55-11.619 39.495-11.619 39.495z" fill="url(#paint8_linear)"/><path d="M407.388 278.63c6.973-13.787-6.799-37.772-6.799-37.772l-11.86-7.698 1.337-8.559s19.128 1.957 20.993 28.964c.62 8.695-.03 19.437-3.671 25.065z" fill="#68E1FD"/><path d="M308.842 232.352c-.642-2.176-1.76-4.767-4.026-4.963a8.996 8.996 0 01-.257 6.043c-4.941-1.828-6.089-9.065-11.022-10.939-.755.801-.332 2.108.136 3.105.861 1.859 1.728 3.717 2.599 5.575a73.649 73.649 0 00-3.694-5.288c-.385-.521-1.05-1.088-1.594-.755-.544.332-.348 1.035-.151 1.579a83.522 83.522 0 002.923 7.124 40.739 40.739 0 00-4.147-5.757c-1.012.249-.801 1.745-.363 2.689l3.241 6.905-2.598-3.777c-.839.083-.711 1.367-.303 2.108a32.322 32.322 0 0015.487 13.922c1.329.567 2.87 1.035 4.177.424 5.621-2.561.68-14.263-.408-17.995z" fill="url(#paint9_linear)"/><path d="M397.945 250.686v46.475c0 5.696-.929 10.327-6.632 10.327h-39.827c-5.68 0-5.9-4.585-5.937-10.259l-.295-31.585s-8.597 15.313-15.456 13.825c-6.859-1.488-27.195-29.523-27.195-29.523l10.122-8.506 17.058 17.103s2.742-6.232 6.731-20.185c3.988-13.953 16.952-13.991 16.952-13.991h34.629c12.502 0 9.85 26.319 9.85 26.319z" fill="#68E1FD"/><path d="M397.945 255.922s5.983 8.408 0 16.816v-16.816z" fill="#3F3D56"/><path d="M393.654 307.194h-43.369v3.165h43.369v-3.165z" fill="url(#paint10_linear)"/><path d="M377.571 192.759h-12.517v31.827h12.517v-31.827z" fill="url(#paint11_linear)"/><path d="M377.579 189.269v35.324h-6.603v-2.153a4.761 4.761 0 00-2.947-4.406 4.772 4.772 0 00-1.827-.36h-.378a11.86 11.86 0 01-11.86-11.861v-16.544h23.615z" fill="url(#paint12_linear)"/><path d="M353.964 192.759s-10.954-5.976-7.033-12.518c3.921-6.542 10.312-2.425 10.312-2.425h21.114s2.425-.377 3.362 3.732c.936 4.11-4.11 29.621-4.11 29.621h-10.493l-1.345-6.633s2.093-2.266 1.904-4.676a1.96 1.96 0 00-1.488-1.982 1.964 1.964 0 00-2.244 1.053c-.944 1.677-.566-5.424-3.928-6.172a13.67 13.67 0 00-6.051 0z" fill="#3F3D56"/><path d="M374.776 224.525s-4.857 6.361-11.588 6.361c-6.731 0-26.342 19.241-27.656 25.036-1.315 5.794-5.734 2.621-5.734 2.621s2.742-6.232 6.731-20.185a18.407 18.407 0 0116.936-13.991h17.602l3.709.158z" fill="url(#paint13_linear)"/><path d="M368.174 431.698l3.422 8.409-13.825 6.542-12.766.929s-2.184-8.408 3.777-9.156a20.507 20.507 0 009.654-3.732l9.738-2.992z" fill="url(#paint14_linear)"/><path d="M379.15 435.498a10.376 10.376 0 00-6.361 8.537l-.37 3.543h15.698v-12.087l-8.967.007z" fill="url(#paint15_linear)"/><path opacity=".18" d="M90.75 27.34s96.967-61.516 221.144 0H90.75z" fill="#68E1FD"/></g><defs><linearGradient id="paint0_linear" x1="6188.36" y1="1958.36" x2="6436.94" y2="1958.36" gradientUnits="userSpaceOnUse"><stop stop-color="#68E1FD"/><stop offset="1" stop-color="#69B9EB"/></linearGradient><linearGradient id="paint1_linear" x1="226.584" y1="128.69" x2="304.068" y2="128.939" gradientUnits="userSpaceOnUse"><stop stop-opacity="0"/><stop offset=".02" stop-color="#030304" stop-opacity=".04"/><stop offset=".18" stop-color="#181821" stop-opacity=".39"/><stop offset=".35" stop-color="#292839" stop-opacity=".66"/><stop offset=".53" stop-color="#363449" stop-opacity=".85"/><stop offset=".73" stop-color="#3D3B53" stop-opacity=".96"/><stop offset=".99" stop-color="#3F3D56"/></linearGradient><linearGradient id="paint2_linear" x1="8005.6" y1="4665.43" x2="7462.79" y2="4677" gradientUnits="userSpaceOnUse"><stop stop-color="#68E1FD"/><stop offset="1" stop-color="#69B9EB"/></linearGradient><linearGradient id="paint3_linear" x1="8576.07" y1="8538.66" x2="9960.43" y2="5789.75" gradientUnits="userSpaceOnUse"><stop stop-opacity="0"/><stop offset=".02" stop-color="#030304" stop-opacity=".04"/><stop offset=".18" stop-color="#181821" stop-opacity=".39"/><stop offset=".35" stop-color="#292839" stop-opacity=".66"/><stop offset=".53" stop-color="#363449" stop-opacity=".85"/><stop offset=".73" stop-color="#3D3B53" stop-opacity=".96"/><stop offset=".99" stop-color="#3F3D56"/></linearGradient><linearGradient id="paint4_linear" x1="12574.8" y1="9932.3" x2="11319.3" y2="6480.72" gradientUnits="userSpaceOnUse"><stop stop-opacity="0"/><stop offset=".02" stop-color="#030304" stop-opacity=".04"/><stop offset=".18" stop-color="#181821" stop-opacity=".39"/><stop offset=".35" stop-color="#292839" stop-opacity=".66"/><stop offset=".53" stop-color="#363449" stop-opacity=".85"/><stop offset=".73" stop-color="#3D3B53" stop-opacity=".96"/><stop offset=".99" stop-color="#3F3D56"/></linearGradient><linearGradient id="paint5_linear" x1="12973.9" y1="5667.1" x2="8915.19" y2="11751.7" gradientUnits="userSpaceOnUse"><stop stop-opacity="0"/><stop offset=".02" stop-color="#030304" stop-opacity=".04"/><stop offset=".18" stop-color="#181821" stop-opacity=".39"/><stop offset=".35" stop-color="#292839" stop-opacity=".66"/><stop offset=".53" stop-color="#363449" stop-opacity=".85"/><stop offset=".73" stop-color="#3D3B53" stop-opacity=".96"/><stop offset=".99" stop-color="#3F3D56"/></linearGradient><linearGradient id="paint6_linear" x1="13747" y1="5991.43" x2="9723.97" y2="12156.1" gradientUnits="userSpaceOnUse"><stop stop-opacity="0"/><stop offset=".02" stop-color="#030304" stop-opacity=".04"/><stop offset=".18" stop-color="#181821" stop-opacity=".39"/><stop offset=".35" stop-color="#292839" stop-opacity=".66"/><stop offset=".53" stop-color="#363449" stop-opacity=".85"/><stop offset=".73" stop-color="#3D3B53" stop-opacity=".96"/><stop offset=".99" stop-color="#3F3D56"/></linearGradient><linearGradient id="paint7_linear" x1="50380.4" y1="27915.8" x2="75648.2" y2="50534.2" gradientUnits="userSpaceOnUse"><stop stop-opacity="0"/><stop offset=".02" stop-color="#030304" stop-opacity=".04"/><stop offset=".18" stop-color="#181821" stop-opacity=".39"/><stop offset=".35" stop-color="#292839" stop-opacity=".66"/><stop offset=".53" stop-color="#363449" stop-opacity=".85"/><stop offset=".73" stop-color="#3D3B53" stop-opacity=".96"/><stop offset=".99" stop-color="#3F3D56"/></linearGradient><linearGradient id="paint8_linear" x1="15502.1" y1="22480.2" x2="10101.8" y2="23043.6" gradientUnits="userSpaceOnUse"><stop stop-opacity="0"/><stop offset=".02" stop-color="#030304" stop-opacity=".04"/><stop offset=".18" stop-color="#181821" stop-opacity=".39"/><stop offset=".35" stop-color="#292839" stop-opacity=".66"/><stop offset=".53" stop-color="#363449" stop-opacity=".85"/><stop offset=".73" stop-color="#3D3B53" stop-opacity=".96"/><stop offset=".99" stop-color="#3F3D56"/></linearGradient><linearGradient id="paint9_linear" x1="288.884" y1="236.582" x2="311.894" y2="236.582" gradientUnits="userSpaceOnUse"><stop stop-color="#ECC4D7"/><stop offset=".42" stop-color="#EFD4D1"/><stop offset="1" stop-color="#F2EAC9"/></linearGradient><linearGradient id="paint10_linear" x1="20460.1" y1="1600.97" x2="22950" y2="1600.97" gradientUnits="userSpaceOnUse"><stop stop-color="#68E1FD"/><stop offset="1" stop-color="#69B9EB"/></linearGradient><linearGradient id="paint11_linear" x1="6453.68" y1="8987.16" x2="6794.38" y2="8984.74" gradientUnits="userSpaceOnUse"><stop stop-color="#ECC4D7"/><stop offset=".42" stop-color="#EFD4D1"/><stop offset="1" stop-color="#F2EAC9"/></linearGradient><linearGradient id="paint12_linear" x1="14123.7" y1="9794.37" x2="13973.1" y2="9847.5" gradientUnits="userSpaceOnUse"><stop stop-color="#ECC4D7"/><stop offset=".42" stop-color="#EFD4D1"/><stop offset="1" stop-color="#F2EAC9"/></linearGradient><linearGradient id="paint13_linear" x1="378.206" y1="251.752" x2="324.759" y2="230.827" gradientUnits="userSpaceOnUse"><stop stop-color="#fff" stop-opacity="0"/><stop offset="1" stop-color="#fff"/></linearGradient><linearGradient id="paint14_linear" x1="15218.9" y1="9672.89" x2="16182.7" y2="9672.89" gradientUnits="userSpaceOnUse"><stop stop-opacity="0"/><stop offset=".02" stop-color="#030304" stop-opacity=".04"/><stop offset=".18" stop-color="#181821" stop-opacity=".39"/><stop offset=".35" stop-color="#292839" stop-opacity=".66"/><stop offset=".53" stop-color="#363449" stop-opacity=".85"/><stop offset=".73" stop-color="#3D3B53" stop-opacity=".96"/><stop offset=".99" stop-color="#3F3D56"/></linearGradient><linearGradient id="paint15_linear" x1="9603.81" y1="7500.16" x2="9930.01" y2="7500.16" gradientUnits="userSpaceOnUse"><stop stop-opacity="0"/><stop offset=".02" stop-color="#030304" stop-opacity=".04"/><stop offset=".18" stop-color="#181821" stop-opacity=".39"/><stop offset=".35" stop-color="#292839" stop-opacity=".66"/><stop offset=".53" stop-color="#363449" stop-opacity=".85"/><stop offset=".73" stop-color="#3D3B53" stop-opacity=".96"/><stop offset=".99" stop-color="#3F3D56"/></linearGradient><clipPath id="clip0"><path fill="#fff" d="M0 0h480v451H0z"/></clipPath></defs></svg>