<svg width="144" height="38" fill="none" xmlns="http://www.w3.org/2000/svg"><rect x="1" y="1" width="36" height="36" rx="18" stroke="#898991" stroke-width="2"/><path d="M61.5 16.552h-4.428V15.4H67.26v1.152h-4.428V28H61.5V16.552zM72.454 28.09c-.912 0-1.734-.204-2.466-.612a4.594 4.594 0 01-1.728-1.728c-.42-.732-.63-1.56-.63-2.484 0-.924.21-1.752.63-2.484a4.465 4.465 0 011.728-1.71c.732-.408 1.554-.612 2.466-.612.912 0 1.734.204 2.466.612a4.34 4.34 0 011.71 1.71c.42.732.63 1.56.63 2.484 0 .924-.21 1.752-.63 2.484a4.465 4.465 0 01-1.71 1.728c-.732.408-1.554.612-2.466.612zm0-1.134c.672 0 1.272-.15 1.8-.45.54-.312.96-.75 1.26-1.314.3-.564.45-1.206.45-1.926s-.15-1.362-.45-1.926c-.3-.564-.72-.996-1.26-1.296-.528-.312-1.128-.468-1.8-.468-.672 0-1.278.156-1.818.468-.528.3-.948.732-1.26 1.296-.3.564-.45 1.206-.45 1.926s.15 1.362.45 1.926a3.406 3.406 0 001.26 1.314c.54.3 1.146.45 1.818.45zm16.505-12.312V28h-1.224v-1.872a3.88 3.88 0 01-1.53 1.458c-.624.336-1.332.504-2.124.504-.888 0-1.692-.204-2.412-.612a4.374 4.374 0 01-1.692-1.71c-.408-.732-.612-1.566-.612-2.502 0-.936.204-1.77.612-2.502a4.251 4.251 0 011.692-1.692c.72-.408 1.524-.612 2.412-.612.768 0 1.458.162 2.07.486a3.854 3.854 0 011.53 1.386v-5.688h1.278zm-4.77 12.312c.66 0 1.254-.15 1.782-.45.54-.312.96-.75 1.26-1.314.312-.564.468-1.206.468-1.926s-.156-1.362-.468-1.926c-.3-.564-.72-.996-1.26-1.296a3.436 3.436 0 00-1.782-.468c-.672 0-1.278.156-1.818.468-.528.3-.948.732-1.26 1.296-.3.564-.45 1.206-.45 1.926s.15 1.362.45 1.926a3.406 3.406 0 001.26 1.314c.54.3 1.146.45 1.818.45zm12.649 1.134c-.912 0-1.734-.204-2.466-.612a4.594 4.594 0 01-1.728-1.728c-.42-.732-.63-1.56-.63-2.484 0-.924.21-1.752.63-2.484a4.465 4.465 0 011.728-1.71c.732-.408 1.554-.612 2.466-.612.912 0 1.734.204 2.466.612a4.34 4.34 0 011.71 1.71c.42.732.63 1.56.63 2.484 0 .924-.21 1.752-.63 2.484a4.464 4.464 0 01-1.71 1.728c-.732.408-1.554.612-2.466.612zm0-1.134c.672 0 1.272-.15 1.8-.45.54-.312.96-.75 1.26-1.314.3-.564.45-1.206.45-1.926s-.15-1.362-.45-1.926c-.3-.564-.72-.996-1.26-1.296-.528-.312-1.128-.468-1.8-.468-.672 0-1.278.156-1.818.468-.528.3-.948.732-1.26 1.296-.3.564-.45 1.206-.45 1.926s.15 1.362.45 1.926a3.406 3.406 0 001.26 1.314c.54.3 1.146.45 1.818.45zm10.403 1.134a7.545 7.545 0 01-2.214-.324c-.696-.228-1.242-.51-1.638-.846l.576-1.008c.396.312.894.57 1.494.774.6.192 1.224.288 1.872.288.864 0 1.5-.132 1.908-.396.42-.276.63-.66.63-1.152 0-.348-.114-.618-.342-.81a2.116 2.116 0 00-.864-.45c-.348-.108-.81-.21-1.386-.306a17.522 17.522 0 01-1.854-.432 2.863 2.863 0 01-1.206-.774c-.324-.36-.486-.858-.486-1.494 0-.792.33-1.44.99-1.944.66-.504 1.578-.756 2.754-.756.612 0 1.224.084 1.836.252.612.156 1.116.366 1.512.63l-.558 1.026c-.78-.54-1.71-.81-2.79-.81-.816 0-1.434.144-1.854.432-.408.288-.612.666-.612 1.134 0 .36.114.648.342.864.24.216.534.378.882.486.348.096.828.198 1.44.306.756.144 1.362.288 1.818.432.456.144.846.39 1.17.738.324.348.486.828.486 1.44 0 .828-.348 1.488-1.044 1.98-.684.48-1.638.72-2.862.72zm11.705-.666c-.24.216-.54.384-.9.504a3.683 3.683 0 01-1.098.162c-.888 0-1.572-.24-2.052-.72s-.72-1.158-.72-2.034v-5.724h-1.692v-1.08h1.692v-2.07h1.278v2.07h2.88v1.08h-2.88v5.652c0 .564.138.996.414 1.296.288.288.696.432 1.224.432.264 0 .516-.042.756-.126.252-.084.468-.204.648-.36l.45.918zm10.686-3.762h-7.92c.072.984.45 1.782 1.134 2.394.684.6 1.548.9 2.592.9a4.19 4.19 0 001.62-.306 3.635 3.635 0 001.278-.936l.72.828c-.42.504-.948.888-1.584 1.152a5.26 5.26 0 01-2.07.396c-.972 0-1.836-.204-2.592-.612a4.558 4.558 0 01-1.746-1.728c-.42-.732-.63-1.56-.63-2.484 0-.924.198-1.752.594-2.484a4.45 4.45 0 011.656-1.71c.708-.408 1.5-.612 2.376-.612.876 0 1.662.204 2.358.612a4.323 4.323 0 011.638 1.71c.396.72.594 1.548.594 2.484l-.018.396zm-4.572-4.104c-.912 0-1.68.294-2.304.882-.612.576-.96 1.332-1.044 2.268h6.714c-.084-.936-.438-1.692-1.062-2.268-.612-.588-1.38-.882-2.304-.882zm8.866.828c.3-.636.744-1.116 1.332-1.44.6-.324 1.338-.486 2.214-.486v1.242l-.306-.018c-.996 0-1.776.306-2.34.918-.564.612-.846 1.47-.846 2.574V28h-1.278v-9.468h1.224v1.854z" fill="#00A8B0"/></svg>