<svg width="885" height="539" fill="none" xmlns="http://www.w3.org/2000/svg"><g clip-path="url(#clip0)"><path opacity=".11" d="M299.638 513.231c-54.91-27.835-154.345-33.351-145.331-209.203 9.015-175.852 249.238-181.693 277.1-268.619 27.862-86.924 321.069-11.734 147.568 202.707-30.722 37.972 41.396 80.13 28.775 149.219-12.62 69.089-253.201 153.732-308.112 125.896z" fill="#898991"/><path opacity=".11" d="M406.721 539c108.536 0 196.522-13.524 196.522-30.207 0-16.682-87.986-30.206-196.522-30.206-108.536 0-196.521 13.524-196.521 30.206 0 16.683 87.985 30.207 196.521 30.207z" fill="#2A94F4"/><path d="M555.28 504.853H244.983c-6.613 0-11.975-5.363-11.975-11.978V64.969c0-6.615 5.362-11.977 11.975-11.977H555.28c6.614 0 11.975 5.362 11.975 11.977v427.906c0 6.615-5.361 11.978-11.975 11.978z" fill="#191928"/><path d="M540.409 488.583H259.854c-6.614 0-11.975-5.363-11.975-11.978V81.239c0-6.615 5.361-11.978 11.975-11.978h280.555c6.613 0 11.975 5.363 11.975 11.978v395.366c0 6.615-5.361 11.978-11.975 11.978z" fill="#222231"/><path opacity=".11" d="M330.594 125.758h-42.675v42.685h42.675v-42.685z" fill="#2A94F4"/><path d="M285.758 137.92c2.166 1.105 4.17 2.361 6.124 3.665a105.19 105.19 0 015.665 4.096c3.673 2.828 7.137 5.852 10.456 9.011l-7.365.545a76.894 76.894 0 013.324-4.871 87.174 87.174 0 013.594-4.575c2.502-2.965 5.178-5.792 8.089-8.4 2.926-2.593 6.041-5.006 9.432-7.051 3.413-2.003 7.048-3.751 10.972-4.582-2.513 3.127-4.864 6.012-7.169 8.939l-6.801 8.734a1246.017 1246.017 0 01-6.799 8.667l-6.836 8.548-3.823 4.78-3.543-4.234c-2.941-3.515-5.738-7.165-8.326-11.011a103.933 103.933 0 01-3.726-5.915c-1.177-2.033-2.304-4.114-3.268-6.346z" fill="#00A8B0"/><path opacity=".11" d="M330.594 250.875h-42.675v42.684h42.675v-42.684zm0 128.303h-42.675v42.685h42.675v-42.685z" fill="#2A94F4"/><path opacity=".52" d="M517.174 125.758H349.8v6.873h167.374v-6.873zm0 17.906H349.8v6.873h167.374v-6.873zm-94.226 17.906h94.226v6.873H349.8v-6.873h73.148zm94.226 89.305H349.8v6.872h167.374v-6.872zm0 17.905H349.8v6.873h167.374v-6.873zm-87.616 17.906H349.8v6.873h79.758v-6.873zm87.616 92.492H349.8v6.873h167.374v-6.873zm-6.783 17.906H349.8v6.873h160.591v-6.873zm6.783 17.906H349.8v6.873h167.374v-6.873z" fill="#2A94F4"/><path d="M473.886 75.023H326.378V42.938c0-6.615 5.361-11.978 11.975-11.978h123.558c6.614 0 11.975 5.363 11.975 11.978v32.085zm15.771 364.252H346.022v87.402h143.635v-87.402zm0 0H346.022l11.769-26.372h120.097l11.769 26.372z" fill="#00A8B0"/><path opacity=".11" d="M489.657 439.275H346.022v87.402h143.635v-87.402z" fill="#00A8B0"/><path d="M395.557 291.803s-33.54 37.91-35.94 50.597c-2.399 12.687 30.397 68.761 30.397 68.761l-15.239 10.624 30.41-2.908s-12.798-46.551-20.072-62.404c9.784-6.636 33.349-32.607 33.349-32.607l21.859 50.942 9.423 58.211 25.262 7.436-14.747-16.004c2.613-42.785 2.565-42.795 4.477-55.873 1.829-12.502-9.015-57.848-12.216-72.299-3.2-14.451-47.505-10.424-56.963-4.476z" fill="#0E538C"/><path d="M387.948 178.256c.45 1.709 11.089 46.597 11.089 46.597s-9.67 4.735-13.683-.685-5.355-46.478-5.355-46.478l7.949.566z" fill="#FCD2B1"/><path d="M386.216 169.366s-5.85-5.051-7.663-1.261c-1.812 3.791 1.381 7.824 1.446 9.585.065 1.762 7.949.566 7.949.566s2.024-5.734-1.732-8.89z" fill="#FCD2B1"/><path d="M389.885 176.816l-61.93-23.182s-5.571 6.218-3.604 13.65l62.817 14.316s3.307.815 2.717-4.784z" fill="#00A8B0"/><path d="M425.094 207.431l-5.406 14.425s.661 6.838 8.141 6.978c7.479.141 8.725-4.184 8.725-4.184l-1.234-17.113s-7.03-1.948-10.226-.106zm-47.234 11.193l-7.428-1.479-5.699-31.314 7.079-7.701-5.094-1.468s1.01-6.306.258-9.557c-.753-3.25-2.89-4.07-8.209-1.976-2.804 1.628-5.02 11.758-2.356 17.502 2.663 5.745 2.398 41.891 1.845 47.701-.553 5.81 15.62 9.572 15.62 9.572s7.737 1.065 10.268-7.035c2.531-8.1-6.284-14.245-6.284-14.245z" fill="#FCD2B1"/><path d="M426.089 219.361c-5.933-1.176-12.979-1.685-20.949-.698-14.248.564-27.28-.039-27.28-.039s-5.726 9.988-3.983 21.279c0 0 14.199 8.687 27.875 9.234 1.561 6.413-.881 35.428-6.195 42.665 4 6.211 37.614 13.546 56.963 4.477 3.288-6.392-.045-33.631-2.746-51.718-1.87-12.521-11.269-22.737-23.685-25.2z" fill="#00A8B0"/><path d="M422.698 183.769s-10.727 13.118-9.468 18.157c1.261 5.04 7.3 9.728 21.616 11.317 4.913-.736 10.351-15.414 10.227-18.485-.813-20.102-17.097-14.38-22.375-10.989z" fill="#FFE3CA"/><path d="M436.064 191.038s-18.734-3.026-20.559-12.492c-1.823-9.466 13.469-14.33 20.249-11.371 2.888 1.261 4.347 3.472 6.045 5.959 1.91 2.797 4.278 3.741 7.327 5.358.981.521 1.968 1.045 2.843 1.73 4.725 3.699 3.048 8.092 2.251 13.043-.767 4.758-1.506 9.653-4.627 13.525-5.427 6.733-14.523 5.688-14.272.746.25-4.939 5.791-15.328.743-16.498zm-46.051 220.123s9.152-.176 12.635-1.176c1.561 5.39 2.537 8.892 2.537 8.892l-30.411 2.908 15.239-10.624zm58.1 11.195c4.381 2.537 12.146 2.095 12.146 2.095l14.748 16.004-25.263-8.025-1.631-10.074z" fill="#0B4870"/><path d="M327.955 153.634l-17.052 1.095 13.448 12.555 3.604.822-3.68-4.51 5.71.3-4.207-4.508 6.46.15-5.108-3.456 5.682-.629-4.857-1.819z" fill="#FFE3CA"/><path d="M319.302 154.19s.261 4.872-2.416 6.125l-5.983-5.586 8.399-.539z" fill="#00A8B0"/><path d="M387.381 175.879s-5.823 1.602-12.133-.652c-6.31-2.254.337-9.413 4.751-8.914 4.414.498 10.279 4.456 7.382 9.566z" fill="#FAB9AF"/></g><defs><clipPath id="clip0"><path fill="#fff" d="M0 0h958v539H0z"/></clipPath></defs></svg>